<!-- Generated by IcoMoon.io -->
<svg version="1.1" xmlns="http://www.w3.org/2000/svg"  viewBox="0 0 37 32">
<title>heart</title>
<path d="M33.794 15.719l-15.566 16.281-15.55-16.281c-1.658-1.671-2.682-3.973-2.682-6.514s1.024-4.843 2.683-6.514l-0.001 0.001c1.644-1.666 3.927-2.698 6.451-2.698s4.807 1.032 6.45 2.697l0.001 0.001 2.648 3.258 2.663-3.258c1.644-1.666 3.927-2.698 6.451-2.698s4.807 1.032 6.45 2.697l0.001 0.001c1.65 1.675 2.67 3.975 2.67 6.514s-1.019 4.839-2.671 6.515l0.001-0.001zM23.919 3.224l-5.691 5.021-4.169-5.021c-1.277-1.143-2.973-1.842-4.831-1.842-2.563 0-4.816 1.329-6.107 3.335l-0.017 0.029c-1.719 2.605-2.191 5.843 0 8.064l15.124 16.144 15.124-16.144c1.008-1.043 1.628-2.465 1.628-4.032s-0.621-2.989-1.63-4.034l0.002 0.002c-2.191-2.234-7.258-3.755-9.434-1.526z"></path>
</svg>
